<?xml version="1.0" encoding="utf-8" standalone="no"?><!DOCTYPE svg PUBLIC "-//W3C//DTD SVG 20010904//EN" "http://www.w3.org/TR/2001/REC-SVG-20010904/DTD/svg10.dtd"><svg xmlns="http://www.w3.org/2000/svg" width="632" height="547" xmlns:xlink="http://www.w3.org/1999/xlink"><source><![CDATA[Gatling\nClient->Broker: Entity
Note over Gatling\nClient: creates\n 'sent' timestamp
Broker->Telegraf: Notification
Telegraf->InfluxDB: Latency\n measurement
Note over Telegraf: creates\n 'received' timestamp
Grafana->InfluxDB: query\n latency]]></source><desc></desc><defs><marker viewBox="0 0 5 5" markerWidth="5" markerHeight="5" orient="auto" refX="5" refY="2.5" id="markerArrowBlock"><path d="M 0 0 L 5 2.5 L 0 5 z"></path></marker><marker viewBox="0 0 9.6 16" markerWidth="4" markerHeight="16" orient="auto" refX="9.6" refY="8" id="markerArrowOpen"><path d="M 9.6,8 1.92,16 0,13.7 5.76,8 0,2.286 1.92,0 9.6,8 z"></path></marker></defs><g class="title"></g><g class="actor"><path d="M43.73333168029785,20C74.1,16.8 110.9,23.2 123.7,20.0C121.3,69.7 126.1,65.0 123.7,79.2C62.9,82.4 56.5,76.0 43.7,79.2C46.1,56.1 41.4,65.0 43.7,20.0" style="stroke-width: 2px;" stroke="#000000" fill="#ffffff"></path><text x="53.73333168029785" y="47" style="font-size: 16px; font-family: danielbd;"><tspan x="53.73333168029785">Gatling</tspan><tspan dy="1.2em" x="53.73333168029785">Client</tspan></text></g><g class="actor"><path d="M43.73333168029785,468.00000381469727C60.3,471.2 62.9,464.8 123.7,468.0C121.3,512.6 126.1,497.3 123.7,527.2C59.6,530.4 90.0,524.0 43.7,527.2C46.1,495.7 41.4,491.3 43.7,468.0" style="stroke-width: 2px;" stroke="#000000" fill="#ffffff"></path><text x="53.73333168029785" y="495.00000381469727" style="font-size: 16px; font-family: danielbd;"><tspan x="53.73333168029785">Gatling</tspan><tspan dy="1.2em" x="53.73333168029785">Client</tspan></text></g><path d="M83.7,79.2C68.2,374.7 99.3,172.5 83.7,468.0" style="stroke-width: 2px;" stroke="#000000" fill="none"></path><g class="actor"><path d="M143.71666526794434,20C180.4,23.4 164.3,16.6 229.5,20.0C231.9,51.5 227.1,29.5 229.5,79.2C203.4,75.8 164.3,82.6 143.7,79.2C146.1,39.3 141.3,34.2 143.7,20.0" style="stroke-width: 2px;" stroke="#000000" fill="#ffffff"></path><text x="153.71666526794434" y="55.60000038146973" style="font-size: 16px; font-family: danielbd;"><tspan x="153.71666526794434">Broker</tspan></text></g><g class="actor"><path d="M143.71666526794434,468.00000381469727C205.0,464.6 164.3,471.4 229.5,468.0C227.1,509.4 231.9,513.0 229.5,527.2C164.3,523.8 208.9,530.6 143.7,527.2C141.3,515.6 146.1,479.4 143.7,468.0" style="stroke-width: 2px;" stroke="#000000" fill="#ffffff"></path><text x="153.71666526794434" y="503.600004196167" style="font-size: 16px; font-family: danielbd;"><tspan x="153.71666526794434">Broker</tspan></text></g><path d="M186.6,79.2C202.2,334.0 171.0,141.4 186.6,468.0" style="stroke-width: 2px;" stroke="#000000" fill="none"></path><g class="actor"><path d="M257.24166679382324,20C289.7,23.8 287.8,16.2 351.7,20.0C349.4,42.5 354.1,46.8 351.7,79.2C336.6,75.4 329.0,83.0 257.2,79.2C254.9,29.5 259.6,68.1 257.2,20.0" style="stroke-width: 2px;" stroke="#000000" fill="#ffffff"></path><text x="267.24166679382324" y="50.60000038146973" style="font-size: 16px; font-family: danielbd;"><tspan x="267.24166679382324">Telegraf</tspan></text></g><g class="actor"><path d="M257.24166679382324,468.00000381469727C336.6,464.2 272.4,471.8 351.7,468.0C354.1,482.2 349.4,477.5 351.7,527.2C325.9,531.0 291.7,523.4 257.2,527.2C254.9,491.9 259.6,509.9 257.2,468.0" style="stroke-width: 2px;" stroke="#000000" fill="#ffffff"></path><text x="267.24166679382324" y="498.600004196167" style="font-size: 16px; font-family: danielbd;"><tspan x="267.24166679382324">Telegraf</tspan></text></g><path d="M304.5,79.2C320.0,141.4 288.9,172.5 304.5,468.0" style="stroke-width: 2px;" stroke="#000000" fill="none"></path><g class="actor"><path d="M387.86666679382324,20C464.7,16.0 412.1,24.0 488.9,20.0C486.5,63.3 491.3,61.3 488.9,79.2C455.0,83.2 420.7,75.2 387.9,79.2C390.2,67.2 385.5,30.3 387.9,20.0" style="stroke-width: 2px;" stroke="#000000" fill="#ffffff"></path><text x="397.86666679382324" y="56.60000038146973" style="font-size: 16px; font-family: danielbd;"><tspan x="397.86666679382324">InfluxDB</tspan></text></g><g class="actor"><path d="M387.86666679382324,468.00000381469727C421.7,472.0 434.5,464.0 488.9,468.0C486.5,477.5 491.3,482.8 488.9,527.2C404.0,523.2 412.1,531.2 387.9,527.2C390.2,490.5 385.5,505.3 387.9,468.0" style="stroke-width: 2px;" stroke="#000000" fill="#ffffff"></path><text x="397.86666679382324" y="504.600004196167" style="font-size: 16px; font-family: danielbd;"><tspan x="397.86666679382324">InfluxDB</tspan></text></g><path d="M438.4,79.2C422.8,172.6 453.9,273.4 438.4,468.0" style="stroke-width: 2px;" stroke="#000000" fill="none"></path><g class="actor"><path d="M508.8999996185303,20C587.2,23.7 579.7,16.3 602.1,20.0C599.7,51.0 604.5,29.5 602.1,79.2C579.7,82.9 587.2,75.5 508.9,79.2C511.3,29.5 506.5,64.5 508.9,20.0" style="stroke-width: 2px;" stroke="#000000" fill="#ffffff"></path><text x="518.8999996185303" y="55.60000038146973" style="font-size: 16px; font-family: danielbd;"><tspan x="518.8999996185303">Grafana</tspan></text></g><g class="actor"><path d="M508.8999996185303,468.00000381469727C531.3,471.7 541.2,464.3 602.1,468.0C604.5,482.2 599.7,477.5 602.1,527.2C536.6,530.9 531.3,523.5 508.9,527.2C511.3,477.5 506.5,482.2 508.9,468.0" style="stroke-width: 2px;" stroke="#000000" fill="#ffffff"></path><text x="518.8999996185303" y="503.600004196167" style="font-size: 16px; font-family: danielbd;"><tspan x="518.8999996185303">Grafana</tspan></text></g><path d="M555.5,79.2C539.9,183.7 571.0,141.4 555.5,468.0" style="stroke-width: 2px;" stroke="#000000" fill="none"></path><g class="signal"><text x="107.52916622161865" y="104.20000076293945" style="font-size: 16px; font-family: danielbd;"><tspan x="107.52916622161865">Entity</tspan></text><path d="M83.7,129.2C112.1,133.3 113.5,125.1 186.6,129.2" style="stroke-width: 2px; marker-end: url(&quot;#markerArrowBlock&quot;);" stroke="#000000" fill="none"></path></g><g class="note"><path d="M10,149.20000076293945C48.8,155.1 81.4,143.3 157.4,149.2C159.7,177.7 155.2,192.7 157.4,206.4C122.1,212.3 45.4,200.5 10.0,206.4C7.7,184.8 12.3,162.9 10.0,149.2" style="stroke-width: 2px;" stroke="#000000" fill="#ffffff"></path><text x="15" y="169.20000076293945" style="font-size: 16px; font-family: danielbd;"><tspan x="15">creates</tspan><tspan dy="1.2em" x="15">'sent' timestamp</tspan></text></g><g class="signal"><text x="196.60000038146973" y="237.4000015258789" style="font-size: 16px; font-family: danielbd;"><tspan x="196.60000038146973">Notification</tspan></text><path d="M186.6,244.4C276.2,239.7 262.1,249.1 304.5,244.4" style="stroke-width: 2px; marker-end: url(&quot;#markerArrowBlock&quot;);" stroke="#000000" fill="none"></path></g><g class="signal"><text x="314.48333168029785" y="266.8000011444092" style="font-size: 16px; font-family: danielbd;"><tspan x="314.48333168029785">Latency</tspan><tspan dy="1.2em" x="314.48333168029785">measurement</tspan></text><path d="M304.5,303.6C404.0,309.0 325.9,298.2 438.4,303.6" style="stroke-width: 2px; marker-end: url(&quot;#markerArrowBlock&quot;);" stroke="#000000" fill="none"></path></g><g class="note"><path d="M213.59166145324707,323.60000228881836C321.3,330.9 257.2,316.3 395.4,323.6C393.1,361.0 397.7,345.5 395.4,380.8C242.7,373.5 330.0,388.1 213.6,380.8C215.9,371.6 211.3,351.0 213.6,323.6" style="stroke-width: 2px;" stroke="#000000" fill="#ffffff"></path><text x="218.59166145324707" y="343.60000228881836" style="font-size: 16px; font-family: danielbd;"><tspan x="218.59166145324707">creates</tspan><tspan dy="1.2em" x="218.59166145324707">'received' timestamp</tspan></text></g><g class="signal"><text x="468.2458324432373" y="395.2000026702881" style="font-size: 16px; font-family: danielbd;"><tspan x="468.2458324432373">query</tspan><tspan dy="1.2em" x="468.2458324432373">latency</tspan></text><path d="M555.5,448.0C527.5,452.7 460.7,443.3 438.4,448.0" style="stroke-width: 2px; marker-end: url(&quot;#markerArrowBlock&quot;);" stroke="#000000" fill="none"></path></g></svg>